<svg xmlns="http://www.w3.org/2000/svg" viewBox="0 0 512 512"><defs><mask id="ik" maskUnits="userSpaceOnUse" x="0" y="0" width="512" height="512"><rect width="512" height="512" fill="#fff"/><path d="M136 322C180 260 250 226 326 246C272 260 236 302 136 322Z" stroke="#000" stroke-width="14" stroke-linejoin="round"/></mask></defs>
<rect width="512" height="512" rx="112" fill="#2F3916"/>
<g transform="translate(256 256) scale(1) translate(-256 -256)">
<path d="M152 356L244 156L276 156L368 356L330 356L245 171.22L160 356Z" fill="#E8650A" mask="url(#ik)"/><path d="M136 322C180 260 250 226 326 246C272 260 236 302 136 322Z" fill="#FBF7F0"/><path d="M148 314C198 276 250 252 304 248" fill="none" stroke="#2F3916" stroke-width="2.6" stroke-linecap="round"/>
<circle cx="372" cy="170" r="34" fill="#E8650A" stroke="#2F3916" stroke-width="12"/>
</g></svg>
